<svg width="1440" height="1024" viewBox="0 0 1440 1024" fill="none" xmlns="http://www.w3.org/2000/svg">
<g clip-path="url(#clip0_22_376)">
<rect width="1440" height="1024" fill="white"/>
<path opacity="0.249674" fill-rule="evenodd" clip-rule="evenodd" d="M1491.15 678.191C1576.58 734.753 1619.44 837.281 1594.7 936.708C1506.12 1292.67 1264.42 2087.47 904.517 1920.56C605.26 1781.79 109.614 1195.35 -201.081 801.283C-325.174 643.894 -218.712 417.528 -18.5857 406.568L913.229 355.533C967.545 352.559 1021.37 367.17 1066.73 397.2L1491.15 678.191Z" fill="url(#paint0_linear_22_376)"/>
<path opacity="0.249674" fill-rule="evenodd" clip-rule="evenodd" d="M350.528 944.492C249.752 942.002 160.286 880.43 126.856 785.328C-1.1212 421.259 -265.137 -461.702 162.754 -515.773C521.776 -561.142 1341.96 -297.92 1851.24 -116.448C2039.91 -49.2208 2070.85 198.845 1907.81 315.182L1072.05 911.553C1027.42 943.399 973.657 959.886 918.848 958.532L350.528 944.492Z" fill="url(#paint1_linear_22_376)"/>
</g>
<defs>
<linearGradient id="paint0_linear_22_376" x1="2328.64" y1="1313.97" x2="1252.35" y2="-166.767" gradientUnits="userSpaceOnUse">
<stop stop-color="#FFECB3" stop-opacity="0.995138"/>
<stop offset="1" stop-color="#E1BEE7"/>
</linearGradient>
<linearGradient id="paint1_linear_22_376" x1="-760.495" y1="844.478" x2="1086.82" y2="1553.29" gradientUnits="userSpaceOnUse">
<stop stop-color="#FFECB3" stop-opacity="0.995138"/>
<stop offset="1" stop-color="#E1BEE7"/>
</linearGradient>
<clipPath id="clip0_22_376">
<rect width="1440" height="1024" fill="white"/>
</clipPath>
</defs>
</svg>
