<svg width="36" height="39" viewBox="0 0 36 39" fill="none" xmlns="http://www.w3.org/2000/svg">
<path fill-rule="evenodd" clip-rule="evenodd" d="M31.67 21.1599C31.7617 20.5833 31.7617 19.9097 31.7617 19.2363C31.7617 18.5628 31.67 17.9861 31.67 17.3126L35.5353 14.1388C35.904 13.8505 35.9956 13.3696 35.7197 12.8886L32.0376 6.25172C31.8533 5.86662 31.3014 5.67509 30.9328 5.86662L26.3302 7.79035C25.4096 7.02108 24.3057 6.34753 23.201 5.86662L22.5565 0.769269C22.4648 0.385097 22.0962 0 21.6359 0H14.2718C13.8115 0 13.443 0.385097 13.3513 0.769269L12.615 5.86662C11.5102 6.34753 10.4979 7.02099 9.48486 7.79035L4.88229 5.86662C4.422 5.67509 3.96171 5.86662 3.77747 6.25172L0.0953943 12.8887C-0.0879781 13.2728 0.00357826 13.8505 0.279632 14.1389L4.23793 17.3126C4.23793 17.9861 4.1462 18.5628 4.1462 19.2363C4.1462 19.9097 4.23793 20.4864 4.23793 21.1599L0.372487 24.3337C0.00383788 24.6221 -0.0877185 25.1029 0.188162 25.5839L3.87024 32.2208C4.05456 32.6059 4.60649 32.7974 4.97506 32.6059L9.57771 30.6822C10.4982 31.4514 11.6022 32.125 12.7069 32.6059L13.4432 37.7033C13.5357 38.1842 13.9034 38.4725 14.3637 38.4725H21.7278C22.1881 38.4725 22.5567 38.0874 22.6484 37.7033L23.3855 32.6059C24.4895 32.125 25.5026 31.4515 26.5147 30.6822L31.1174 32.6059C31.5776 32.7974 32.0378 32.6059 32.2222 32.2208L35.9042 25.5838C36.0885 25.1997 35.996 24.6221 35.7199 24.3336L31.67 21.1599ZM17.9539 25.969C14.3636 25.969 11.5103 22.9878 11.5103 19.2363C11.5103 15.4847 14.3636 12.5036 17.9539 12.5036C21.5443 12.5036 24.3976 15.4847 24.3976 19.2363C24.3976 22.9878 21.5443 25.969 17.9539 25.969Z" fill="black" fill-opacity="0.54"/>
</svg>
